<svg width="9" height="8" viewBox="0 0 9 8" fill="none" xmlns="http://www.w3.org/2000/svg">
<path d="M6.45859 0.174805C6.0576 0.181115 5.66535 0.294357 5.32146 0.503097C4.97757 0.711836 4.69421 1.00868 4.50001 1.36365C4.3058 1.00868 4.02244 0.711836 3.67855 0.503097C3.33466 0.294357 2.94241 0.181115 2.54142 0.174805C1.90219 0.202901 1.29993 0.485798 0.86622 0.961691C0.432509 1.43758 0.202604 2.06779 0.22673 2.71462C0.22673 4.35271 1.93105 6.14175 3.36047 7.35474C3.67961 7.62606 4.08313 7.7748 4.50001 7.7748C4.91688 7.7748 5.3204 7.62606 5.63955 7.35474C7.06896 6.14175 8.77328 4.35271 8.77328 2.71462C8.79741 2.06779 8.5675 1.43758 8.13379 0.961691C7.70008 0.485798 7.09782 0.202901 6.45859 0.174805Z" fill="#9F9F9F"/>
</svg>
