<svg id="Settings" xmlns="http://www.w3.org/2000/svg" width="23.499" height="23.497" viewBox="0 0 23.499 23.497">
  <path id="Path_16631" data-name="Path 16631" d="M33.566,27.8a5.766,5.766,0,1,0,5.766,5.766h0A5.774,5.774,0,0,0,33.566,27.8Zm0,10.493a4.727,4.727,0,1,1,4.727-4.727h0A4.732,4.732,0,0,1,33.566,38.293Z" transform="translate(-21.816 -21.819)" fill="#f86600"/>
  <path id="Path_16632" data-name="Path 16632" d="M28.259,15.935a1.75,1.75,0,0,0-1.743-1.74h-.608A9.539,9.539,0,0,0,24.8,11.512l.426-.429a1.743,1.743,0,0,0,0-2.464h0L24.405,7.8a1.738,1.738,0,0,0-1.234-.519A1.763,1.763,0,0,0,21.94,7.8l-.429.429a9.552,9.552,0,0,0-2.68-1.112v-.6A1.745,1.745,0,0,0,17.089,4.77H15.93a1.745,1.745,0,0,0-1.743,1.743v.605A9.557,9.557,0,0,0,11.5,8.227L11.076,7.8a1.743,1.743,0,0,0-2.288-.151H8.765l-.974.974a1.743,1.743,0,0,0,0,2.462l.429.429A9.576,9.576,0,0,0,7.11,14.2H6.5A1.745,1.745,0,0,0,4.76,15.938V17.1A1.748,1.748,0,0,0,6.5,18.855h.61a9.594,9.594,0,0,0,1.109,2.68l-.429.429a1.743,1.743,0,0,0,0,2.462l.818.821a1.743,1.743,0,0,0,2.464,0h0l.429-.431a9.561,9.561,0,0,0,2.683,1.1v.608a1.748,1.748,0,0,0,1.743,1.74h1.158a1.745,1.745,0,0,0,1.743-1.74v-.608a9.545,9.545,0,0,0,2.683-1.112l.429.431a1.7,1.7,0,0,0,1.228.519,1.741,1.741,0,0,0,1.234-.519l.818-.821a1.743,1.743,0,0,0,0-2.464h0l-.429-.426a9.55,9.55,0,0,0,1.117-2.673h.608a1.748,1.748,0,0,0,1.743-1.745ZM27.22,17.1a.707.707,0,0,1-.7.717h-1.46l-.083.418A8.528,8.528,0,0,1,23.7,21.319l-.236.356L24.491,22.7a.7.7,0,0,1,0,1l0,0-.818.821a.709.709,0,0,1-.5.205h0a.706.706,0,0,1-.491-.2l-1.023-1.039-.356.239A8.531,8.531,0,0,1,18.211,25l-.418.091v1.449a.7.7,0,0,1-.7.7H15.93a.707.707,0,0,1-.706-.7V25.088L14.806,25a8.548,8.548,0,0,1-3.085-1.293l-.356-.236L10.341,24.5a.724.724,0,0,1-.995,0l-.821-.823a.7.7,0,0,1,0-.995l1.023-1.021-.236-.353a8.572,8.572,0,0,1-1.278-3.088l-.083-.405H6.5a.707.707,0,0,1-.7-.706V15.938a.7.7,0,0,1,.7-.7H7.954l.083-.418a8.571,8.571,0,0,1,1.275-3.088l.236-.353L8.528,10.351a.7.7,0,0,1,0-1l0,0,.823-.823a.725.725,0,0,1,.992,0l1.023,1.026.353-.236a8.533,8.533,0,0,1,3.088-1.275l.418-.083V6.513a.7.7,0,0,1,.7-.7h1.158a.706.706,0,0,1,.7.7V7.959l.418.083A8.539,8.539,0,0,1,21.3,9.32l.353.236,1.021-1.021a.73.73,0,0,1,1,0l.821.821a.7.7,0,0,1,0,1l0,0L23.47,11.372l.236.353a8.521,8.521,0,0,1,1.278,3.088l.083.418h1.452a.709.709,0,0,1,.7.7Z" transform="translate(-4.76 -4.77)" fill="#f86600"/>
</svg>
